<svg width="141" height="26" viewBox="0 0 141 26" fill="none" xmlns="http://www.w3.org/2000/svg">
<path d="M15.026 6.49V19H12.974V10.432L9.158 19H7.736L3.902 10.432V19H1.85V6.49H4.064L8.456 16.3L12.83 6.49H15.026ZM22.025 19.162C21.089 19.162 20.243 18.952 19.487 18.532C18.731 18.1 18.137 17.5 17.705 16.732C17.273 15.952 17.057 15.052 17.057 14.032C17.057 13.024 17.279 12.13 17.723 11.35C18.167 10.57 18.773 9.97 19.541 9.55C20.309 9.13 21.167 8.92 22.115 8.92C23.063 8.92 23.921 9.13 24.689 9.55C25.457 9.97 26.063 10.57 26.507 11.35C26.951 12.13 27.173 13.024 27.173 14.032C27.173 15.04 26.945 15.934 26.489 16.714C26.033 17.494 25.409 18.1 24.617 18.532C23.837 18.952 22.973 19.162 22.025 19.162ZM22.025 17.38C22.553 17.38 23.045 17.254 23.501 17.002C23.969 16.75 24.347 16.372 24.635 15.868C24.923 15.364 25.067 14.752 25.067 14.032C25.067 13.312 24.929 12.706 24.653 12.214C24.377 11.71 24.011 11.332 23.555 11.08C23.099 10.828 22.607 10.702 22.079 10.702C21.551 10.702 21.059 10.828 20.603 11.08C20.159 11.332 19.805 11.71 19.541 12.214C19.277 12.706 19.145 13.312 19.145 14.032C19.145 15.1 19.415 15.928 19.955 16.516C20.507 17.092 21.197 17.38 22.025 17.38ZM31.2536 10.522C31.5536 10.018 31.9496 9.628 32.4416 9.352C32.9456 9.064 33.5396 8.92 34.2236 8.92V11.044H33.7016C32.8976 11.044 32.2856 11.248 31.8656 11.656C31.4576 12.064 31.2536 12.772 31.2536 13.78V19H29.2016V9.082H31.2536V10.522ZM45.1998 13.798C45.1998 14.17 45.1758 14.506 45.1278 14.806H37.5498C37.6098 15.598 37.9038 16.234 38.4318 16.714C38.9598 17.194 39.6078 17.434 40.3758 17.434C41.4798 17.434 42.2598 16.972 42.7158 16.048H44.9298C44.6298 16.96 44.0838 17.71 43.2918 18.298C42.5118 18.874 41.5398 19.162 40.3758 19.162C39.4278 19.162 38.5758 18.952 37.8198 18.532C37.0758 18.1 36.4878 17.5 36.0558 16.732C35.6358 15.952 35.4258 15.052 35.4258 14.032C35.4258 13.012 35.6298 12.118 36.0378 11.35C36.4578 10.57 37.0398 9.97 37.7838 9.55C38.5398 9.13 39.4038 8.92 40.3758 8.92C41.3118 8.92 42.1458 9.124 42.8778 9.532C43.6098 9.94 44.1798 10.516 44.5878 11.26C44.9958 11.992 45.1998 12.838 45.1998 13.798ZM43.0578 13.15C43.0458 12.394 42.7758 11.788 42.2478 11.332C41.7198 10.876 41.0658 10.648 40.2858 10.648C39.5778 10.648 38.9718 10.876 38.4678 11.332C37.9638 11.776 37.6638 12.382 37.5678 13.15H43.0578ZM56.0169 19.126C55.1769 19.126 54.4209 18.982 53.7489 18.694C53.0769 18.394 52.5489 17.974 52.1649 17.434C51.7809 16.894 51.5889 16.264 51.5889 15.544H53.7849C53.8329 16.084 54.0429 16.528 54.4149 16.876C54.7989 17.224 55.3329 17.398 56.0169 17.398C56.7249 17.398 57.2769 17.23 57.6729 16.894C58.0689 16.546 58.2669 16.102 58.2669 15.562C58.2669 15.142 58.1409 14.8 57.8889 14.536C57.6489 14.272 57.3429 14.068 56.9709 13.924C56.6109 13.78 56.1069 13.624 55.4589 13.456C54.6429 13.24 53.9769 13.024 53.4609 12.808C52.9569 12.58 52.5249 12.232 52.1649 11.764C51.8049 11.296 51.6249 10.672 51.6249 9.892C51.6249 9.172 51.8049 8.542 52.1649 8.002C52.5249 7.462 53.0289 7.048 53.6769 6.76C54.3249 6.472 55.0749 6.328 55.9269 6.328C57.1389 6.328 58.1289 6.634 58.8969 7.246C59.6769 7.846 60.1089 8.674 60.1929 9.73H57.9249C57.8889 9.274 57.6729 8.884 57.2769 8.56C56.8809 8.236 56.3589 8.074 55.7109 8.074C55.1229 8.074 54.6429 8.224 54.2709 8.524C53.8989 8.824 53.7129 9.256 53.7129 9.82C53.7129 10.204 53.8269 10.522 54.0549 10.774C54.2949 11.014 54.5949 11.206 54.9549 11.35C55.3149 11.494 55.8069 11.65 56.4309 11.818C57.2589 12.046 57.9309 12.274 58.4469 12.502C58.9749 12.73 59.4189 13.084 59.7789 13.564C60.1509 14.032 60.3369 14.662 60.3369 15.454C60.3369 16.09 60.1629 16.69 59.8149 17.254C59.4789 17.818 58.9809 18.274 58.3209 18.622C57.6729 18.958 56.9049 19.126 56.0169 19.126ZM65.1522 10.756V16.246C65.1522 16.618 65.2362 16.888 65.4042 17.056C65.5842 17.212 65.8842 17.29 66.3042 17.29H67.5642V19H65.9442C65.0202 19 64.3122 18.784 63.8202 18.352C63.3282 17.92 63.0822 17.218 63.0822 16.246V10.756H61.9122V9.082H63.0822V6.616H65.1522V9.082H67.5642V10.756H65.1522ZM73.7575 19.162C72.8215 19.162 71.9755 18.952 71.2195 18.532C70.4635 18.1 69.8695 17.5 69.4375 16.732C69.0055 15.952 68.7895 15.052 68.7895 14.032C68.7895 13.024 69.0115 12.13 69.4555 11.35C69.8995 10.57 70.5055 9.97 71.2735 9.55C72.0415 9.13 72.8995 8.92 73.8475 8.92C74.7955 8.92 75.6535 9.13 76.4215 9.55C77.1895 9.97 77.7955 10.57 78.2395 11.35C78.6835 12.13 78.9055 13.024 78.9055 14.032C78.9055 15.04 78.6775 15.934 78.2215 16.714C77.7655 17.494 77.1415 18.1 76.3495 18.532C75.5695 18.952 74.7055 19.162 73.7575 19.162ZM73.7575 17.38C74.2855 17.38 74.7775 17.254 75.2335 17.002C75.7015 16.75 76.0795 16.372 76.3675 15.868C76.6555 15.364 76.7995 14.752 76.7995 14.032C76.7995 13.312 76.6615 12.706 76.3855 12.214C76.1095 11.71 75.7435 11.332 75.2875 11.08C74.8315 10.828 74.3395 10.702 73.8115 10.702C73.2835 10.702 72.7915 10.828 72.3355 11.08C71.8915 11.332 71.5375 11.71 71.2735 12.214C71.0095 12.706 70.8775 13.312 70.8775 14.032C70.8775 15.1 71.1475 15.928 71.6875 16.516C72.2395 17.092 72.9295 17.38 73.7575 17.38ZM82.986 10.522C83.286 10.018 83.682 9.628 84.174 9.352C84.678 9.064 85.272 8.92 85.956 8.92V11.044H85.434C84.63 11.044 84.018 11.248 83.598 11.656C83.19 12.064 82.986 12.772 82.986 13.78V19H80.934V9.082H82.986V10.522ZM88.8862 7.768C88.5142 7.768 88.2022 7.642 87.9502 7.39C87.6982 7.138 87.5722 6.826 87.5722 6.454C87.5722 6.082 87.6982 5.77 87.9502 5.518C88.2022 5.266 88.5142 5.14 88.8862 5.14C89.2462 5.14 89.5522 5.266 89.8042 5.518C90.0562 5.77 90.1822 6.082 90.1822 6.454C90.1822 6.826 90.0562 7.138 89.8042 7.39C89.5522 7.642 89.2462 7.768 88.8862 7.768ZM89.8942 9.082V19H87.8422V9.082H89.8942ZM101.678 13.798C101.678 14.17 101.654 14.506 101.606 14.806H94.0283C94.0883 15.598 94.3823 16.234 94.9103 16.714C95.4383 17.194 96.0863 17.434 96.8543 17.434C97.9583 17.434 98.7383 16.972 99.1943 16.048H101.408C101.108 16.96 100.562 17.71 99.7703 18.298C98.9903 18.874 98.0183 19.162 96.8543 19.162C95.9063 19.162 95.0543 18.952 94.2983 18.532C93.5543 18.1 92.9663 17.5 92.5343 16.732C92.1143 15.952 91.9043 15.052 91.9043 14.032C91.9043 13.012 92.1083 12.118 92.5163 11.35C92.9363 10.57 93.5183 9.97 94.2623 9.55C95.0183 9.13 95.8823 8.92 96.8543 8.92C97.7903 8.92 98.6243 9.124 99.3563 9.532C100.088 9.94 100.658 10.516 101.066 11.26C101.474 11.992 101.678 12.838 101.678 13.798ZM99.5363 13.15C99.5243 12.394 99.2543 11.788 98.7263 11.332C98.1983 10.876 97.5443 10.648 96.7643 10.648C96.0563 10.648 95.4503 10.876 94.9463 11.332C94.4423 11.776 94.1423 12.382 94.0463 13.15H99.5363ZM107.298 19.162C106.518 19.162 105.816 19.024 105.192 18.748C104.58 18.46 104.094 18.076 103.734 17.596C103.374 17.104 103.182 16.558 103.158 15.958H105.282C105.318 16.378 105.516 16.732 105.876 17.02C106.248 17.296 106.71 17.434 107.262 17.434C107.838 17.434 108.282 17.326 108.594 17.11C108.918 16.882 109.08 16.594 109.08 16.246C109.08 15.874 108.9 15.598 108.54 15.418C108.192 15.238 107.634 15.04 106.866 14.824C106.122 14.62 105.516 14.422 105.048 14.23C104.58 14.038 104.172 13.744 103.824 13.348C103.488 12.952 103.32 12.43 103.32 11.782C103.32 11.254 103.476 10.774 103.788 10.342C104.1 9.898 104.544 9.55 105.12 9.298C105.708 9.046 106.38 8.92 107.136 8.92C108.264 8.92 109.17 9.208 109.854 9.784C110.55 10.348 110.922 11.122 110.97 12.106H108.918C108.882 11.662 108.702 11.308 108.378 11.044C108.054 10.78 107.616 10.648 107.064 10.648C106.524 10.648 106.11 10.75 105.822 10.954C105.534 11.158 105.39 11.428 105.39 11.764C105.39 12.028 105.486 12.25 105.678 12.43C105.87 12.61 106.104 12.754 106.38 12.862C106.656 12.958 107.064 13.084 107.604 13.24C108.324 13.432 108.912 13.63 109.368 13.834C109.836 14.026 110.238 14.314 110.574 14.698C110.91 15.082 111.084 15.592 111.096 16.228C111.096 16.792 110.94 17.296 110.628 17.74C110.316 18.184 109.872 18.532 109.296 18.784C108.732 19.036 108.066 19.162 107.298 19.162Z" fill="#22343D"/>
<path d="M131.67 13H125.5V11H131.67L129.09 8.41L130.5 7L135.5 12L130.5 17L129.09 15.59L131.67 13Z" fill="#2E3A59"/>
<path fill-rule="evenodd" clip-rule="evenodd" d="M120.5 12C120.5 6.47715 124.977 2 130.5 2C136.023 2 140.5 6.47715 140.5 12C140.5 17.5228 136.023 22 130.5 22C124.977 22 120.5 17.5228 120.5 12ZM122.5 12C122.5 7.58172 126.082 4 130.5 4C134.918 4 138.5 7.58172 138.5 12C138.5 16.4183 134.918 20 130.5 20C126.082 20 122.5 16.4183 122.5 12Z" fill="#2E3A59"/>
</svg>
