<svg width="850" height="82" viewBox="0 0 850 82" fill="none" xmlns="http://www.w3.org/2000/svg">
<g clip-path="url(#clip0_34_1669)">
<path d="M45.5801 51.4363C45.3306 50.8269 45.0968 50.1863 44.8474 49.6394L43.6939 47.03L43.6471 46.9831C40.2177 39.4831 36.5545 31.8581 32.673 24.3581L32.5171 24.0456C32.1274 23.3113 31.7377 22.4988 31.3324 21.7488C30.8336 20.8581 30.3503 19.905 29.5553 18.9988C28.7804 18.0505 27.8051 17.2865 26.6999 16.762C25.5947 16.2374 24.3871 15.9653 23.1642 15.9653C21.9413 15.9653 20.7337 16.2374 19.6284 16.762C18.5232 17.2865 17.5479 18.0505 16.773 18.9988C16.0403 19.905 15.4948 20.8581 14.9959 21.7488C14.6062 22.5613 14.2165 23.3581 13.8112 24.0925L13.6554 24.405C9.83623 31.905 6.11065 39.53 2.68123 47.03L2.5877 47.1238C2.24476 47.9363 1.83947 48.78 1.44976 49.6863C1.20035 50.2331 0.95094 50.8269 0.701529 51.4831C0.0281678 53.2015 -0.186858 55.0662 0.0776443 56.8933C0.342146 58.7203 1.07705 60.4468 2.20992 61.9025C3.34279 63.3582 4.83452 64.4929 6.53811 65.1948C8.2417 65.8966 10.0983 66.1414 11.9251 65.905C13.6763 65.6739 15.3627 65.0892 16.8821 64.1863C18.9086 63.0456 20.8571 61.3894 23.0395 58.9988C25.2218 61.3894 27.2171 63.0456 29.1968 64.2019C31.1006 65.322 33.2565 65.9402 35.4633 65.9988C38.0187 66.0094 40.4918 65.0929 42.4257 63.4186C44.3597 61.7443 45.6241 59.4252 45.9853 56.8894C46.4029 55.0672 46.2616 53.161 45.5801 51.4206V51.4363ZM23.1954 54.03C20.5142 50.5925 18.7683 47.4363 18.1759 44.7331C17.9305 43.7315 17.8776 42.6921 18.0201 41.6706C18.1292 40.8738 18.4254 40.1706 18.8306 39.5769C19.7659 38.2175 21.4027 37.3738 23.1954 37.3738C24.0467 37.3477 24.8911 37.5339 25.653 37.9157C26.4148 38.2975 27.0701 38.8629 27.5601 39.5613C27.9654 40.1863 28.2615 40.8738 28.3551 41.6706C28.5109 42.5769 28.4486 43.6238 28.1992 44.7331C27.6068 47.3894 25.8609 50.5769 23.1954 54.03ZM43.0548 56.3425C42.8777 57.6299 42.3671 58.8483 41.5739 59.8764C40.7808 60.9044 39.7327 61.7062 38.5342 62.2019C37.3495 62.7019 36.0401 62.8425 34.7618 62.7019C33.5148 62.5456 32.2677 62.1394 30.9895 61.3894C28.8671 60.0745 26.9587 58.4409 25.3309 56.5456C28.6045 52.4831 30.5842 48.78 31.3324 45.4831C31.6909 43.9206 31.7377 42.5144 31.5818 41.2175C31.3872 39.9883 30.9299 38.8157 30.2412 37.78C29.455 36.657 28.4055 35.7448 27.185 35.1236C25.9646 34.5024 24.6106 34.1912 23.2421 34.2175C20.3583 34.2175 17.7862 35.5613 16.2274 37.7644C15.5257 38.7974 15.0722 39.9794 14.9024 41.2175C14.6998 42.53 14.7465 43.9831 15.1518 45.4831C15.9001 48.78 17.9265 52.53 21.1533 56.5769C19.5531 58.5084 17.6403 60.1564 15.4948 61.4519C14.2009 62.2019 12.9695 62.5925 11.7224 62.7488C9.78305 62.9978 7.82402 62.4694 6.27114 61.2786C4.71826 60.0878 3.69705 58.3308 3.42947 56.3894C3.27359 55.1394 3.3827 53.8894 3.88153 52.4831C4.03741 51.9831 4.27123 51.4831 4.52065 50.8894C4.86359 50.0769 5.26888 49.2331 5.65859 48.3894L5.72094 48.28C9.088 40.8269 12.7668 33.2175 16.5859 25.7644L16.7418 25.4519C17.1315 24.7019 17.5212 23.905 17.9265 23.155C18.3318 22.3581 18.7683 21.5925 19.3295 20.9675C19.8152 20.3863 20.4222 19.9189 21.1076 19.5982C21.793 19.2774 22.5402 19.1112 23.2967 19.1112C24.0531 19.1112 24.8003 19.2774 25.4858 19.5982C26.1712 19.9189 26.7781 20.3863 27.2639 20.9675C27.8095 21.5925 28.2615 22.3581 28.6668 23.155C29.0565 23.905 29.4462 24.7175 29.8515 25.4519L30.0074 25.7644C33.8109 33.2175 37.4898 40.8269 40.9192 48.28L40.9659 48.3269C41.3712 49.1394 41.7142 50.0456 42.1039 50.8269C42.3533 51.4363 42.6027 51.9206 42.7586 52.4363C43.0548 53.8425 43.2106 55.0925 43.0548 56.3425ZM64.7536 53.6863C63.5789 53.7035 62.4155 53.4554 61.3496 52.9604C60.2837 52.4654 59.3426 51.7362 58.5962 50.8269C56.919 48.8893 56.0289 46.3911 56.1021 43.8269C56.0765 41.2069 56.9953 38.6657 58.6898 36.6706C59.4735 35.7497 60.4492 35.0122 61.548 34.5101C62.6469 34.008 63.8422 33.7534 65.0498 33.7644C66.186 33.7332 67.3116 33.9922 68.3205 34.517C69.3294 35.0418 70.1887 35.8152 70.8174 36.7644L70.9733 34.3113H75.525V53.1863H70.9577L70.8018 50.4363C70.1536 51.4498 69.2577 52.2804 68.1991 52.8492C67.1405 53.418 65.9545 53.7062 64.7536 53.6863ZM65.9383 49.1863C66.8424 49.1863 67.6374 48.9363 68.3856 48.4831C69.0715 47.9831 69.6327 47.3269 70.0692 46.53C70.4589 45.7331 70.6615 44.78 70.6615 43.7175C70.7223 42.7947 70.5431 41.8719 70.1414 41.0393C69.7398 40.2067 69.1294 39.4928 68.37 38.9675C67.6404 38.5118 66.798 38.2703 65.9383 38.2703C65.0786 38.2703 64.2362 38.5118 63.5065 38.9675C62.8206 39.4675 62.2595 40.1238 61.823 40.9206C61.4108 41.7994 61.208 42.7623 61.2306 43.7331C61.1699 44.6559 61.3491 45.5788 61.7507 46.4114C62.1524 47.244 62.7627 47.9578 63.5221 48.4831C64.2548 48.9363 65.0498 49.1863 65.9383 49.1863ZM83.3192 29.2175C83.3192 29.7644 83.2256 30.2644 82.9762 30.6706C82.7268 31.0613 82.3839 31.4206 81.9318 31.6706C81.4798 31.9206 80.9965 32.0144 80.4977 32.0144C79.9989 32.0144 79.5 31.9206 79.048 31.6706C78.6205 31.4321 78.2609 31.0878 78.0036 30.6706C77.7622 30.2255 77.6438 29.7239 77.6606 29.2175C77.6606 28.655 77.7698 28.155 78.0036 27.7644C78.253 27.2956 78.6115 27.0144 79.048 26.7644C79.5 26.5144 79.9833 26.405 80.4977 26.405C80.9939 26.3935 81.4846 26.5113 81.9217 26.7469C82.3589 26.9824 82.7276 27.3276 82.9918 27.7488C83.2187 28.2043 83.331 28.7085 83.3192 29.2175ZM78.0192 53.1238V34.28H82.9762V53.155H78.0036L78.0192 53.1238ZM96.2262 39.2175V39.28C95.9924 39.1706 95.6806 39.1238 95.4468 39.0769C95.135 39.0144 94.8856 39.0144 94.5895 39.0144C93.2021 39.0144 92.1577 39.4206 91.4718 40.2644C90.7236 41.1238 90.3806 42.3269 90.3806 43.8738V53.1394H85.408V34.2644H89.9753L90.1312 37.1238C90.63 36.1238 91.2224 35.3738 92.0642 34.8113C92.9015 34.2647 93.8872 33.9918 94.8856 34.03C95.2442 34.03 95.5871 34.0613 95.8833 34.1238C96.0392 34.1706 96.1327 34.1706 96.2262 34.2175V39.2175ZM98.2215 53.1238V26.53H103.179V36.6863C103.88 35.78 104.675 35.0769 105.673 34.53C107.252 33.7538 109.046 33.5336 110.766 33.905C112.485 34.2764 114.03 35.2176 115.15 36.5769C116.831 38.5184 117.722 41.023 117.644 43.5925C117.67 46.2125 116.751 48.7537 115.057 50.7488C114.273 51.6697 113.297 52.4071 112.199 52.9093C111.1 53.4114 109.904 53.6659 108.697 53.655C107.561 53.6862 106.435 53.4272 105.426 52.9024C104.417 52.3776 103.558 51.6042 102.929 50.655L102.773 53.1081L98.2215 53.155V53.1238ZM107.808 49.1863C108.697 49.1863 109.492 48.9363 110.24 48.4831C110.926 47.9831 111.487 47.3269 111.924 46.53C112.329 45.7331 112.516 44.78 112.516 43.7175C112.516 42.6706 112.329 41.7175 111.924 40.9206C111.514 40.1522 110.939 39.485 110.24 38.9675C109.51 38.5118 108.668 38.2703 107.808 38.2703C106.949 38.2703 106.106 38.5118 105.377 38.9675C104.675 39.4675 104.129 40.1238 103.677 40.9206C103.265 41.7994 103.062 42.7623 103.085 43.7331C103.024 44.6559 103.203 45.5788 103.605 46.4114C104.007 47.244 104.617 47.9578 105.377 48.4831C106.109 48.9363 106.904 49.1863 107.808 49.1863ZM119.515 53.1394V34.2644H124.082L124.238 36.7175C124.812 35.7772 125.626 35.0076 126.597 34.4884C127.567 33.9692 128.658 33.7193 129.757 33.7644C131.013 33.7426 132.248 34.0927 133.307 34.7708C134.366 35.4489 135.203 36.425 135.711 37.5769C136.257 38.7644 136.553 40.2331 136.553 41.8738V53.1863H131.58V42.53C131.58 41.2175 131.284 40.1863 130.692 39.4206C130.099 38.6706 129.289 38.2644 128.26 38.2644C127.512 38.2644 126.857 38.4206 126.28 38.7644C125.735 39.1238 125.283 39.5769 124.94 40.2175C124.593 40.8651 124.421 41.5922 124.441 42.3269V53.1394H119.515ZM139.032 53.1394V26.5144H144.004V36.6706C144.678 35.7593 145.554 35.0179 146.563 34.5053C147.572 33.9927 148.687 33.723 149.819 33.7175C150.993 33.7003 152.157 33.9484 153.223 34.4434C154.288 34.9384 155.23 35.6676 155.976 36.5769C157.645 38.5183 158.529 41.0152 158.454 43.5769C158.482 46.1971 157.562 48.7388 155.867 50.7331C155.083 51.654 154.107 52.3915 153.009 52.8936C151.91 53.3958 150.714 53.6503 149.507 53.6394C148.371 53.6706 147.245 53.4116 146.236 52.8868C145.227 52.362 144.368 51.5886 143.739 50.6394L143.599 53.0925L139.032 53.1394ZM148.665 49.1863C149.569 49.1863 150.364 48.9363 151.097 48.4831C151.798 47.9831 152.344 47.3269 152.796 46.53C153.186 45.7331 153.388 44.78 153.388 43.7175C153.449 42.7947 153.27 41.8719 152.868 41.0393C152.467 40.2067 151.856 39.4928 151.097 38.9675C150.367 38.5118 149.525 38.2703 148.665 38.2703C147.805 38.2703 146.963 38.5118 146.233 38.9675C145.547 39.4675 144.986 40.1238 144.55 40.9206C144.115 41.7916 143.911 42.7602 143.957 43.7331C143.897 44.6559 144.076 45.5788 144.477 46.4114C144.879 47.244 145.49 47.9578 146.249 48.4831C146.982 48.9363 147.73 49.1863 148.665 49.1863Z" fill="#FF385C"/>
</g>
<path d="M285.13 41.6412C285.13 48.5814 279.768 53.6956 273.187 53.6956C266.606 53.6956 261.244 48.5814 261.244 41.6412C261.244 34.6521 266.606 29.5869 273.187 29.5869C279.768 29.5869 285.13 34.6521 285.13 41.6412ZM279.902 41.6412C279.902 37.3043 276.794 34.3369 273.187 34.3369C269.58 34.3369 266.472 37.3043 266.472 41.6412C266.472 45.9347 269.58 48.9456 273.187 48.9456C276.794 48.9456 279.902 45.9293 279.902 41.6412Z" fill="#EA4335"/>
<path d="M310.895 41.6412C310.895 48.5814 305.533 53.6956 298.952 53.6956C292.371 53.6956 287.009 48.5814 287.009 41.6412C287.009 34.6575 292.371 29.5869 298.952 29.5869C305.533 29.5869 310.895 34.6521 310.895 41.6412ZM305.667 41.6412C305.667 37.3043 302.559 34.3369 298.952 34.3369C295.345 34.3369 292.237 37.3043 292.237 41.6412C292.237 45.9347 295.345 48.9456 298.952 48.9456C302.559 48.9456 305.667 45.9293 305.667 41.6412Z" fill="#FBBC05"/>
<path d="M335.586 30.3151V51.9564C335.586 60.8586 330.401 64.4945 324.271 64.4945C318.501 64.4945 315.028 60.5869 313.718 57.3912L318.27 55.4727C319.08 57.4347 321.066 59.7499 324.266 59.7499C328.189 59.7499 330.621 57.2988 330.621 52.6847V50.951H330.438C329.268 52.413 327.014 53.6901 324.169 53.6901C318.216 53.6901 312.763 48.4401 312.763 41.6847C312.763 34.8804 318.216 29.5869 324.169 29.5869C327.008 29.5869 329.263 30.8641 330.438 32.2825H330.621V30.3206H335.586V30.3151ZM330.991 41.6847C330.991 37.4401 328.195 34.3369 324.636 34.3369C321.029 34.3369 318.007 37.4401 318.007 41.6847C318.007 45.8858 321.029 48.9456 324.636 48.9456C328.195 48.9456 330.991 45.8858 330.991 41.6847Z" fill="#4285F4"/>
<path d="M343.772 17.6304V52.9565H338.673V17.6304H343.772Z" fill="#34A853"/>
<path d="M363.643 45.6087L367.701 48.3478C366.392 50.3097 363.236 53.6902 357.782 53.6902C351.019 53.6902 345.968 48.3967 345.968 41.6358C345.968 34.4674 351.062 29.5815 357.197 29.5815C363.375 29.5815 366.397 34.5597 367.385 37.25L367.927 38.6195L352.012 45.2934C353.23 47.7119 355.125 48.9456 357.782 48.9456C360.444 48.9456 362.291 47.6195 363.643 45.6087ZM351.153 41.2717L361.792 36.7989C361.207 35.2934 359.446 34.2445 357.374 34.2445C354.717 34.2445 351.019 36.6195 351.153 41.2717Z" fill="#EA4335"/>
<path d="M241.943 38.5054V33.3913H258.963C259.13 34.2826 259.216 35.3369 259.216 36.4782C259.216 40.3152 258.18 45.0597 254.841 48.4402C251.594 51.8641 247.444 53.6902 241.948 53.6902C231.76 53.6902 223.193 45.288 223.193 34.9728C223.193 24.6576 231.76 16.2554 241.948 16.2554C247.584 16.2554 251.599 18.4945 254.616 21.413L251.051 25.0217C248.888 22.9674 245.958 21.3695 241.943 21.3695C234.503 21.3695 228.684 27.4402 228.684 34.9728C228.684 42.5054 234.503 48.5761 241.943 48.5761C246.768 48.5761 249.516 46.6141 251.277 44.8315C252.705 43.3858 253.644 41.3206 254.014 38.5L241.943 38.5054Z" fill="#4285F4"/>
<g clip-path="url(#clip1_34_1669)">
<path d="M508.184 44.3426L506.915 47.8217H506.809C506.597 47.0372 506.209 45.8434 505.575 44.4108L498.769 27.8682H492.104V54.2341H496.512V37.9643C496.512 36.941 496.512 35.7814 496.476 34.3488C496.441 33.6325 496.371 33.0868 496.335 32.6775H496.441C496.653 33.7007 496.9 34.4511 497.076 34.9286L505.257 54.1658H508.361L516.472 34.7581C516.648 34.3147 516.824 33.4279 517.001 32.6775H517.106C517.001 34.6217 516.93 36.3612 516.895 37.4186V54.1317H521.585V27.8H515.167L508.184 44.3426ZM526.028 35.2356H530.613V54.1317H526.028V35.2356ZM528.356 27.2542C527.58 27.2542 526.945 27.5271 526.416 28.0046C525.887 28.4821 525.605 29.0961 525.605 29.8465C525.605 30.5627 525.887 31.1767 526.416 31.6542C526.945 32.1317 527.58 32.3705 528.356 32.3705C529.132 32.3705 529.802 32.0976 530.295 31.6542C530.824 31.1767 531.107 30.5627 531.107 29.8465C531.107 29.1302 530.824 28.5162 530.295 28.0046C529.837 27.5271 529.167 27.2542 528.356 27.2542ZM546.87 35.0651C546.024 34.8945 545.142 34.7922 544.296 34.7922C542.215 34.7922 540.311 35.2356 538.724 36.1224C537.137 37.0093 535.867 38.2372 535.056 39.7721C534.21 41.341 533.787 43.1488 533.787 45.2294C533.787 47.0372 534.21 48.6403 535.021 50.1069C535.832 51.5395 536.96 52.6992 538.477 53.4837C539.923 54.2682 541.615 54.6775 543.52 54.6775C545.706 54.6775 547.575 54.2341 549.056 53.4155L549.092 53.3814V49.2883L548.915 49.4248C548.245 49.9023 547.469 50.3116 546.694 50.5503C545.882 50.8232 545.142 50.9596 544.507 50.9596C542.673 50.9596 541.228 50.448 540.205 49.3224C539.147 48.231 538.618 46.7302 538.618 44.8542C538.618 42.91 539.147 41.3752 540.24 40.2496C541.333 39.124 542.779 38.5441 544.542 38.5441C546.024 38.5441 547.54 39.0217 548.915 39.9767L549.092 40.1131V35.7814L549.056 35.7472C548.457 35.5085 547.787 35.2356 546.87 35.0651ZM561.999 34.9286C560.87 34.9286 559.812 35.2697 558.895 35.986C558.119 36.6 557.59 37.4868 557.132 38.5441H557.097V35.2356H552.512V54.1317H557.097V44.479C557.097 42.8418 557.449 41.4775 558.225 40.4883C559.001 39.4651 559.988 38.9534 561.187 38.9534C561.611 38.9534 562.034 39.0558 562.563 39.124C563.056 39.2604 563.409 39.3969 563.656 39.5674L563.832 39.7038V35.2697L563.727 35.2356C563.409 35.031 562.774 34.9286 561.999 34.9286ZM574.482 34.8263C571.273 34.8263 568.699 35.7472 566.9 37.555C565.067 39.3628 564.185 41.8527 564.185 44.9907C564.185 47.924 565.102 50.3116 566.865 52.0511C568.628 53.7565 571.026 54.6434 574.024 54.6434C577.162 54.6434 579.666 53.7224 581.465 51.8806C583.299 50.0387 584.18 47.5829 584.18 44.5472C584.18 41.5457 583.334 39.1581 581.606 37.4186C579.948 35.679 577.515 34.8263 574.482 34.8263ZM578.15 49.3565C577.304 50.4139 575.963 50.9255 574.306 50.9255C572.649 50.9255 571.308 50.4139 570.356 49.2883C569.404 48.231 568.946 46.6961 568.946 44.7519C568.946 42.7395 569.439 41.2046 570.356 40.1131C571.308 39.0217 572.613 38.4759 574.271 38.4759C575.893 38.4759 577.162 38.9876 578.079 40.0449C578.996 41.1023 579.49 42.6372 579.49 44.6496C579.419 46.6961 579.032 48.2992 578.15 49.3565ZM594.407 43.0806C592.961 42.5007 592.044 42.0573 591.621 41.6821C591.268 41.341 591.092 40.8635 591.092 40.2496C591.092 39.7379 591.304 39.2263 591.833 38.8852C592.362 38.5441 592.961 38.3736 593.843 38.3736C594.619 38.3736 595.43 38.51 596.206 38.7147C596.981 38.9193 597.687 39.2263 598.251 39.6356L598.427 39.7721V35.6108L598.321 35.5767C597.792 35.3721 597.087 35.1674 596.241 34.9969C595.394 34.8604 594.619 34.7922 593.984 34.7922C591.797 34.7922 589.999 35.3038 588.588 36.4294C587.178 37.4868 586.508 38.9193 586.508 40.5907C586.508 41.4775 586.649 42.262 586.966 42.91C587.283 43.5581 587.742 44.1721 588.377 44.6837C589.011 45.1612 589.928 45.7069 591.198 46.2186C592.256 46.662 593.067 47.0031 593.561 47.2759C594.054 47.5488 594.372 47.8558 594.619 48.0945C594.795 48.3674 594.901 48.7085 594.901 49.1519C594.901 50.4139 593.913 51.0279 591.903 51.0279C591.127 51.0279 590.316 50.8914 589.364 50.5845C588.412 50.2775 587.53 49.8341 586.79 49.3224L586.613 49.186V53.5178L586.719 53.5519C587.389 53.8589 588.2 54.0635 589.188 54.3023C590.175 54.4728 591.057 54.6093 591.833 54.6093C594.195 54.6093 596.135 54.0976 597.51 52.9721C598.921 51.8806 599.661 50.4821 599.661 48.6744C599.661 47.4124 599.309 46.2868 598.533 45.4341C597.51 44.6155 596.241 43.7628 594.407 43.0806ZM611.757 34.8263C608.548 34.8263 605.974 35.7472 604.175 37.555C602.377 39.3628 601.46 41.8527 601.46 44.9907C601.46 47.924 602.377 50.3116 604.14 52.0511C605.903 53.7565 608.301 54.6434 611.299 54.6434C614.437 54.6434 616.941 53.7224 618.74 51.8806C620.574 50.0387 621.455 47.5829 621.455 44.5472C621.455 41.5457 620.609 39.1581 618.881 37.4186C617.223 35.679 614.79 34.8263 611.757 34.8263ZM615.39 49.3565C614.543 50.4139 613.203 50.9255 611.546 50.9255C609.853 50.9255 608.548 50.4139 607.596 49.2883C606.644 48.231 606.185 46.6961 606.185 44.7519C606.185 42.7395 606.679 41.2046 607.596 40.1131C608.548 39.0217 609.853 38.4759 611.51 38.4759C613.097 38.4759 614.402 38.9876 615.319 40.0449C616.236 41.1023 616.73 42.6372 616.73 44.6496C616.73 46.6961 616.271 48.2992 615.39 49.3565ZM645.964 38.8852V35.2356H641.345V29.6418L641.204 29.6759L636.831 30.9379L636.725 30.9721V35.2356H629.813V32.848C629.813 31.7565 630.095 30.9038 630.589 30.3581C631.082 29.8124 631.823 29.5395 632.74 29.5395C633.375 29.5395 634.045 29.6759 634.785 29.9829L634.962 30.0852V26.231L634.856 26.1969C634.221 25.9922 633.375 25.8558 632.281 25.8558C630.906 25.8558 629.707 26.1628 628.614 26.6744C627.521 27.2542 626.71 28.0387 626.11 29.0961C625.511 30.1193 625.193 31.279 625.193 32.6093V35.2356H621.984V38.8511H625.193V54.1317H629.813V38.8852H636.725V48.6062C636.725 52.5969 638.664 54.6093 642.544 54.6093C643.178 54.6093 643.848 54.5069 644.483 54.4046C645.153 54.2682 645.647 54.0976 645.929 53.9612L645.964 53.9271V50.2775L645.788 50.4139C645.506 50.5845 645.259 50.7209 644.836 50.8232C644.483 50.9255 644.166 50.9596 643.919 50.9596C643.002 50.9596 642.367 50.755 641.909 50.2434C641.486 49.7659 641.274 48.9814 641.274 47.8217V38.8852H645.964Z" fill="#737373"/>
<path d="M433 19H454.617V39.9085H433V19Z" fill="#F25022"/>
<path d="M456.874 19H478.491V39.9085H456.874V19Z" fill="#7FBA00"/>
<path d="M433 42.0915H454.617V63H433V42.0915Z" fill="#00A4EF"/>
<path d="M456.874 42.0915H478.491V63H456.874V42.0915Z" fill="#FFB900"/>
</g>
<g clip-path="url(#clip2_34_1669)">
<path d="M814.109 60.743L825.785 47.8118L814.109 34.8788H826.428L832.211 41.1608L837.779 34.8788H849.668L838.048 47.7584L849.828 60.743H837.458L831.728 54.4094L826.052 60.743H814.109Z" fill="#FF6600"/>
<path d="M814.109 29.081H800.886V34.8788H814.109V43.6166H800.886V51.6368H814.109V60.743H791.167V20H814.109V29.081Z" fill="#FF6600"/>
<path d="M781.489 20V36.674H781.382C779.24 34.2464 776.563 33.4028 773.457 33.4028C767.094 33.4028 762.301 37.6664 760.619 43.3034C758.7 37.0922 753.752 33.2864 746.415 33.2864C740.456 33.2864 735.751 35.9228 733.295 40.2188V34.8794H720.979V29.0822H734.42V20H710V60.7436H720.979V43.6166H731.922C731.596 44.8748 731.422 46.2218 731.422 47.6432C731.422 56.1422 738.009 62.1056 746.415 62.1056C753.483 62.1056 758.142 58.8344 760.606 52.8704H751.197C749.924 54.662 748.959 55.1942 746.415 55.1942C743.464 55.1942 740.921 52.6568 740.921 49.649H760.079C760.909 56.3996 766.244 62.2214 773.565 62.2214C776.723 62.2214 779.614 60.6902 781.382 58.1048H781.489V60.7424H791.167V20H781.489ZM741.226 43.7384C741.837 41.1506 743.873 39.4592 746.415 39.4592C749.213 39.4592 751.145 41.0984 751.654 43.7384C751.868 43.7384 741.226 43.7384 741.226 43.7384ZM775.616 54.5396C772.048 54.5396 769.831 51.263 769.831 47.8418C769.831 44.1848 771.759 40.6682 775.616 40.6682C779.614 40.6682 781.207 44.1848 781.207 47.8418C781.206 51.3098 779.519 54.5396 775.616 54.5396Z" fill="#652C8F"/>
</g>
<defs>
<clipPath id="clip0_34_1669">
<rect width="159" height="50" fill="white" transform="translate(0 16)"/>
</clipPath>
<clipPath id="clip1_34_1669">
<rect width="213" height="44" fill="white" transform="translate(433 19)"/>
</clipPath>
<clipPath id="clip2_34_1669">
<rect width="140" height="42" fill="white" transform="translate(710 20)"/>
</clipPath>
</defs>
</svg>
